# xmcd
#
# Track frame offsets:
#	150
#	15735
#	33475
#	53877
#	70004
#	88723
#	104300
#	122402
#	139700
#	157507
#	189799
#
# Disc length: 2769 seconds
#
# Revision: 1
# Processed by: cddbd v1.5.1PL0 Copyright (c) Steve Scherf et al.
# Submitted via: audiograbber 1.83.01
#
DISCID=7d0acf0b
DTITLE=Various Artist - Keynote Karaoke - Country Vol. 1
DYEAR=2005
DGENRE=Karaoke
TTITLE0=Alan Jackson - Monday Morning Church
TTITLE1=Alan Jackson and Jimmy Buffett - Five O'Clock Somewhere
TTITLE2=Brad Paisley feat. Alison Krauss - Whiskey Lullaby
TTITLE3=Gretchen Wilson - Redneck Woman
TTITLE4=Gretchen Wilson - When I Think About Cheatin'
TTITLE5=Jamie O'Neal - Trying To Find Atlantis
TTITLE6=Martina McBride - How Far
TTITLE7=Rascal Flatts - God Bless The Broken Road
TTITLE8=Sara Evans - Suds In The Bucket
TTITLE9=Tim McGraw - Back When
TTITLE10=data - data
EXTD=
EXTT0=
EXTT1=
EXTT2=
EXTT3=
EXTT4=
EXTT5=
EXTT6=
EXTT7=
EXTT8=
EXTT9=
EXTT10=
PLAYORDER=
